<svg width="200" height="200" viewBox="0 0 200 200" fill="none" xmlns="http://www.w3.org/2000/svg">
<rect x="16" y="17" width="166" height="166" rx="20" fill="url(#paint0_linear_5750_23482)"/>
<path d="M113.75 74.3333L127 67.6666L120.375 64.3334V57.6667L107.125 64.3334L113.75 50.9999H107.125L100.5 41L93.8749 50.9999H87.2499L93.8749 64.3334L80.6248 57.6667V64.3334L74 67.6666L87.2499 74.3333L83.9375 81.0001H97.1876V91H103.812V81.0001H117.063L113.75 74.3333Z" fill="white"/>
<path d="M148.5 154.328C146.768 154.328 145.141 154.016 143.619 153.393C142.121 152.746 140.799 151.858 139.652 150.727C138.505 149.572 137.603 148.245 136.948 146.745C136.316 145.221 136 143.582 136 141.828C136 140.073 136.316 138.446 136.948 136.945C137.603 135.422 138.505 134.094 139.652 132.963C140.799 131.809 142.121 130.92 143.619 130.297C145.141 129.651 146.768 129.328 148.5 129.328C150.232 129.328 151.847 129.651 153.346 130.297C154.867 130.92 156.201 131.809 157.348 132.963C158.495 134.094 159.385 135.422 160.017 136.945C160.672 138.446 161 140.073 161 141.828C161 143.582 160.672 145.221 160.017 146.745C159.385 148.245 158.495 149.572 157.348 150.727C156.201 151.858 154.867 152.746 153.346 153.393C151.847 154.016 150.232 154.328 148.5 154.328ZM148.5 152.839C150.022 152.839 151.438 152.562 152.749 152.008C154.083 151.431 155.242 150.646 156.225 149.653C157.208 148.661 157.969 147.495 158.507 146.156C159.069 144.817 159.35 143.374 159.35 141.828C159.35 140.281 159.069 138.838 158.507 137.499C157.969 136.161 157.208 134.995 156.225 134.002C155.242 133.01 154.083 132.236 152.749 131.682C151.438 131.105 150.022 130.817 148.5 130.817C146.978 130.817 145.551 131.105 144.216 131.682C142.905 132.236 141.758 133.01 140.775 134.002C139.792 134.995 139.02 136.161 138.458 137.499C137.919 138.838 137.65 140.281 137.65 141.828C137.65 143.374 137.919 144.817 138.458 146.156C139.02 147.495 139.792 148.661 140.775 149.653C141.758 150.646 142.905 151.431 144.216 152.008C145.551 152.562 146.978 152.839 148.5 152.839Z" fill="white"/>
<path d="M113 153.328V129.328H114.734L130.405 150.55V129.328H132V153.328H130.613L114.595 131.659V153.328H113Z" fill="white"/>
<path d="M105 153.328V129.328H107V153.328H105Z" fill="white"/>
<path d="M93.0278 154.328C91.0574 154.328 89.2161 153.935 87.5037 153.15C85.7914 152.342 84.2901 151.188 83 149.688L84.2667 148.649C85.4395 150.011 86.7648 151.05 88.2426 151.765C89.7438 152.481 91.3389 152.839 93.0278 152.839C94.4352 152.839 95.6901 152.596 96.7926 152.112C97.8951 151.627 98.763 150.969 99.3963 150.138C100.03 149.284 100.346 148.326 100.346 147.264C100.346 145.856 99.8537 144.782 98.8685 144.044C97.9068 143.282 96.2765 142.716 93.9778 142.347L90.987 141.862C88.5241 141.47 86.7179 140.789 85.5685 139.819C84.4191 138.85 83.8444 137.522 83.8444 135.837C83.8444 134.545 84.1846 133.414 84.8648 132.444C85.5685 131.474 86.542 130.713 87.7852 130.159C89.0284 129.605 90.4475 129.328 92.0426 129.328C93.6611 129.328 95.2796 129.605 96.8981 130.159C98.5167 130.69 100.053 131.486 101.507 132.548L100.522 133.864C97.7543 131.832 94.9278 130.817 92.0426 130.817C90.7759 130.817 89.65 131.024 88.6648 131.44C87.6796 131.855 86.9056 132.444 86.3426 133.206C85.7796 133.944 85.4981 134.799 85.4981 135.768C85.4981 137.038 85.9321 138.03 86.8 138.746C87.6679 139.438 89.1222 139.946 91.163 140.269L94.1537 140.754C96.9451 141.193 98.9506 141.932 100.17 142.97C101.39 143.986 102 145.452 102 147.368C102 148.707 101.613 149.907 100.839 150.969C100.065 152.008 98.9975 152.827 97.637 153.427C96.3 154.028 94.7636 154.328 93.0278 154.328Z" fill="white"/>
<path d="M59 153.328L69.0375 129.328H70.9969L81 153.328H79.2813L75.9469 145.202H64.0188L60.65 153.328H59ZM64.6031 143.796H75.3625L70 130.802L64.6031 143.796Z" fill="white"/>
<path d="M47.9857 154.328C46.2941 154.328 44.7138 154.004 43.2448 153.358C41.7981 152.712 40.5294 151.823 39.4388 150.692C38.3704 149.538 37.5246 148.21 36.9014 146.71C36.3005 145.186 36 143.559 36 141.828C36 140.096 36.3005 138.48 36.9014 136.98C37.5246 135.456 38.3704 134.129 39.4388 132.998C40.5294 131.844 41.7981 130.944 43.2448 130.297C44.7138 129.651 46.2941 129.328 47.9857 129.328C49.1431 129.328 50.256 129.466 51.3243 129.743C52.4149 130.02 53.4388 130.436 54.3959 130.99C55.3529 131.544 56.221 132.236 57 133.067L55.9984 134.279C55.0413 133.194 53.8394 132.352 52.3927 131.751C50.9682 131.128 49.4992 130.817 47.9857 130.817C46.4944 130.817 45.1145 131.105 43.8458 131.682C42.5994 132.236 41.4976 133.021 40.5405 134.037C39.6057 135.029 38.8712 136.195 38.337 137.534C37.8251 138.85 37.5692 140.281 37.5692 141.828C37.5692 143.374 37.8251 144.817 38.337 146.156C38.8712 147.472 39.6057 148.637 40.5405 149.653C41.4976 150.646 42.5994 151.431 43.8458 152.008C45.1145 152.562 46.4944 152.839 47.9857 152.839C49.4992 152.839 50.9682 152.527 52.3927 151.904C53.8394 151.281 55.0413 150.438 55.9984 149.376L57 150.588C56.221 151.419 55.3529 152.112 54.3959 152.666C53.4388 153.22 52.4149 153.635 51.3243 153.912C50.256 154.189 49.1431 154.328 47.9857 154.328Z" fill="white"/>
<path d="M152.502 113.091L150.576 107.337L148.675 113.091H152.502ZM140.15 119.24L146.3 100.765H154.851L161.001 119.24H154.534L154.033 117.709H147.118L146.617 119.24H140.15Z" fill="white"/>
<path d="M131.185 119.24H121.947V100.765H131.185C136.279 100.765 140.422 104.909 140.422 110.003C140.422 115.096 136.279 119.24 131.185 119.24ZM128.097 106.915V113.091H131.185C132.874 113.091 134.273 111.692 134.273 110.003C134.273 108.313 132.874 106.915 131.185 106.915H128.097Z" fill="white"/>
<path d="M112.139 113.091L110.212 107.337L108.312 113.091H112.139ZM99.7871 119.24L105.937 100.765H114.488L120.637 119.24H114.171L113.67 117.709H106.755L106.253 119.24H99.7871Z" fill="white"/>
<path d="M86.1417 119.24H79.9922V100.765H86.1417L92.3176 109.528V100.765H98.4671V119.24H92.3176L86.1417 110.478V119.24Z" fill="white"/>
<path d="M69.9221 113.091L67.9955 107.337L66.0952 113.091H69.9221ZM57.5703 119.24L63.7198 100.765H72.2711L78.4206 119.24H71.9544L71.4529 117.709H64.538L64.0365 119.24H57.5703Z" fill="white"/>
<path d="M48.0293 120.032C42.5132 120.032 38 115.545 38 110.003C38 104.487 42.5132 100 48.0293 100C52.3841 100 56.211 102.798 57.5571 106.915L51.1964 107.759C50.4574 106.757 49.2697 106.097 48.0293 106.097C45.9178 106.097 44.1759 107.839 44.1759 110.003C44.1759 112.141 45.9178 113.935 48.0293 113.935C49.2697 113.935 50.4574 113.276 51.1964 112.273L57.5571 113.117C56.211 117.234 52.3841 120.032 48.0293 120.032Z" fill="white"/>
<defs>
<linearGradient id="paint0_linear_5750_23482" x1="182" y1="-75.5" x2="45.5" y2="213" gradientUnits="userSpaceOnUse">
<stop offset="0.365349" stop-color="#C10110"/>
<stop offset="1" stop-color="#5B0108"/>
</linearGradient>
</defs>
</svg>
