<svg width="43" height="38" viewBox="0 0 43 38" fill="none" xmlns="http://www.w3.org/2000/svg">
<path d="M38.2062 25.5V12.5C41.4062 11.4 43.4063 8.2001 42.8063 5.1001C42.6063 3.9001 42.0061 2.69971 41.1061 1.69971C40.1061 0.599707 38.9061 0 37.6061 0H5.3063C4.0063 0 2.8063 0.599707 1.8063 1.69971C1.0063 2.59971 0.4061 3.8001 0.1061 5.1001C-0.4939 8.2001 1.5062 11.4 4.7062 12.5V25.5C1.5062 26.6 -0.4939 29.7999 0.1061 32.8999C0.3061 34.0999 0.906295 35.2998 1.8063 36.2998C2.8063 37.3998 4.0063 38 5.3063 38H37.6061C38.9061 38 40.1061 37.3998 41.1061 36.2998C41.9061 35.3998 42.5063 34.1999 42.8063 32.8999C43.4063 29.7999 41.4062 26.6 38.2062 25.5ZM5.90615 26.1997C7.20615 25.5997 8.3062 24.5999 9.2062 23.3999C10.1062 22.0999 10.5062 20.5 10.5062 19C10.5062 17.5 10.0062 15.9001 9.2062 14.6001C8.4062 13.4001 7.30615 12.3998 5.90615 11.7998V9.7998C5.90615 7.4998 7.70625 5.69971 10.0062 5.69971H33.0062C35.2062 5.69971 37.1061 7.4998 37.1061 9.7998V11.7998C35.8061 12.3998 34.7063 13.4001 33.8063 14.6001C32.9063 15.9001 32.5062 17.5 32.5062 19C32.5062 20.5 33.0063 22.0999 33.8063 23.3999C34.6063 24.5999 35.7061 25.5997 37.1061 26.1997V28.1997C37.1061 30.4997 35.3062 32.2998 33.0062 32.2998H10.0062C7.80625 32.2998 5.90615 30.4997 5.90615 28.1997V26.1997Z" fill="#050505"/>
</svg>
